<svg xmlns="http://www.w3.org/2000/svg" viewBox="0 0 472.66 86.34"><defs><style>.cls-1{fill:#eb6d38;}</style></defs><g id="图层_2" data-name="图层 2"><g id="图层_1-2" data-name="图层 1"><path class="cls-1" d="M42.06,81.51Q21,83.76,0,86.34V0H40.23C53,.31,69.77,4.94,70.66,18.9c.56,8.64-5.63,15.61-16.82,19.28C63.51,39.33,73.3,45.72,74.1,55.4,75.44,71.67,57.07,80.67,42.06,81.51Zm-5-67.76-17.57.32c0,8.06,0,12.09,0,20.14,7-.33,10.54-.49,17.56-.79C45.39,32.82,50,29,50,22.66,50,17.06,45.42,13.85,37.09,13.75ZM39,47c-7.8.47-11.7.72-19.5,1.24l0,22.42c7.64-.75,11.46-1.1,19.1-1.78,9.62-.85,15-5.29,14.84-12.17C53.29,50.36,48.1,46.73,39,47Z"/><path class="cls-1" d="M160.41,72.67c-9.85.4-14.78.63-24.63,1.15q-10.59-13.83-21-27.75c-4.54.18-6.8.27-11.33.47q0,14.81-.07,29.63c-7.82.55-11.72.85-19.53,1.48Q83.9,38.83,84,0h39.46c13.93-.34,32.38,5.3,32.77,21.86.29,12.74-9.33,20.05-21.15,22.45Q147.64,58.58,160.41,72.67ZM120.28,13.26l-16.8.19c0,8.14,0,12.2,0,20.34,6.72-.22,10.08-.31,16.8-.5,10.41-.28,15.14-4,15.26-10.12C135.63,16.61,131,12.92,120.28,13.26Z"/><path class="cls-1" d="M234.76,71.48q-33.87.13-67.7,1.27.06-36.37.13-72.74h66.4V13.27q-23.44,0-46.89.12c0,6.27,0,9.4,0,15.67q21.9-.21,43.78-.26V42.06q-21.9.07-43.8.38c0,6.78,0,10.18,0,17q24.06-.51,48.12-.54Z"/><path class="cls-1" d="M312.64,73q-33.86-1.26-67.7-1.53,0-35.73,0-71.48h66.41c0,5.42,0,8.13,0,13.54q-23.44-.18-46.89-.24c0,6.23,0,9.34,0,15.57q21.88.15,43.78.47c0,5.4,0,8.1,0,13.51q-21.9-.45-43.79-.69c0,6.75,0,10.12,0,16.87q24.06.3,48.11,1.1Z"/><path class="cls-1" d="M395.88,78.24q-38.47-3.15-77-5c0-5,0-7.56,0-12.6q25.25-22.78,49.91-46.2-22.84-.29-45.7-.5c0-5.59,0-8.38,0-14h70.7l0,14.49q-25.12,23.88-51.06,46.84,26.58,1.3,53.12,3.09C395.86,70,395.86,72.71,395.88,78.24Z"/><path class="cls-1" d="M472.66,86.34Q439,82.2,405.24,79.06q-.08-39.53-.16-79h66.4c0,6.4,0,9.6,0,16q-23.43-.54-46.86-1c0,7,0,10.55,0,17.57q21.85.91,43.71,2V50.48q-21.84-1.54-43.68-2.88c0,7.62,0,11.42,0,19q24,2,47.94,4.47Z"/></g></g></svg>